<svg class="icon-info" width="267" height="275" viewBox="0 0 267 275" fill="none" xmlns="http://www.w3.org/2000/svg">
<path d="M138.84 15.4056L133.5 12.0324L128.16 15.4056L15.1596 86.7822L10.5 89.7254V95.2368V254.5V264.5H20.5H246.5H256.5V254.5V95.2368V89.7254L251.84 86.7822L138.84 15.4056Z" stroke="black" stroke-width="20"/>
<path d="M118.575 100.333L118.615 100.372L118.656 100.41C122.609 104.106 127.456 105.957 132.91 105.957C138.366 105.957 143.202 104.104 147.107 100.373L147.108 100.371C151.078 96.5743 153.145 91.7908 153.145 86.3086C153.145 80.7951 151.102 75.9786 147.129 72.168C143.209 68.3427 138.383 66.3672 132.91 66.3672C127.438 66.3672 122.611 68.3427 118.692 72.168C114.718 75.9785 112.676 80.7951 112.676 86.3086C112.676 91.7542 114.682 96.5265 118.575 100.333ZM129.214 123.893C127.693 124.29 125.152 124.965 121.6 125.917C118.532 126.678 113.999 127.125 107.812 127.125H102.812V132.125V142.867V147.867H107.812H114.844C115.97 147.867 116.73 147.955 117.206 148.052C117.26 148.293 117.325 148.625 117.386 149.07C117.555 150.289 117.656 151.976 117.656 154.195V208.004C117.656 209.68 117.516 210.853 117.329 211.625C117.291 211.695 117.104 211.999 116.47 212.495C116.416 212.506 115.931 212.709 114.656 212.896C113.105 213.123 110.916 213.258 108.008 213.258H103.008V218.258V229V234H108.008H158.301H163.301V229V218.258V213.258H158.301C155.408 213.258 153.167 213.057 151.501 212.722C150.311 212.482 149.572 212.204 149.142 211.988C149.125 211.93 149.105 211.861 149.085 211.782C148.901 211.052 148.75 209.84 148.75 208.004V140.523C148.75 136.011 148.223 131.79 146.487 128.669C144.187 124.314 139.656 123.023 135.449 123.023C133.295 123.023 131.206 123.298 129.214 123.893ZM117.73 148.201C117.729 148.201 117.728 148.2 117.725 148.199C117.728 148.2 117.73 148.201 117.73 148.201ZM149.242 212.264C149.248 212.273 149.25 212.279 149.25 212.279C149.25 212.279 149.247 212.274 149.242 212.264Z" stroke="black" stroke-width="10"/>
</svg>
