<svg width="13253" height="4415" viewBox="0 0 13253 4415" fill="none" xmlns="http://www.w3.org/2000/svg">
<path d="M-4 -4.3501V4414.65H13253V-4.3501H-4ZM3962.05 2638.21H3460.5V1772.09H3631.51L3701 2301L3962.05 2474.71V2638.21ZM4414.56 2655.45C4325.5 2655.45 4238.44 2629.04 4164.39 2579.56C4090.34 2530.08 4032.62 2459.75 3998.54 2377.47C3964.46 2295.19 3955.54 2204.65 3972.91 2117.3C3990.29 2029.95 3909.94 1852.11 3972.91 1789.13C4035.89 1726.16 4239.36 1780.88 4326.71 1763.51C4414.06 1746.13 4504.6 1755.05 4586.88 1789.13C4669.16 1823.21 4739.49 1880.93 4788.97 1954.98C4838.44 2029.03 4864.85 2116.09 4864.85 2205.15C4865.38 2264.39 4854.11 2323.15 4831.7 2377.99C4809.29 2432.84 4906.73 2596.3 4864.85 2638.21C4822.98 2680.13 4642.63 2599.65 4587.81 2622.12C4532.99 2644.59 4474.24 2655.92 4415 2655.45H4414.56ZM5841.45 2638.21H5647.02L5477.5 2487.65L5321.78 2638.21H5127.34L4884.74 1772.09H5064.15L5229.86 2414.17V2001.35H5740.7V2414.17L5904.2 1772.09H6083.61L5841.45 2638.21ZM6993.04 2638.21H6491.93V1772.09H6662.94L6774.5 2301L6993.04 2474.71V2638.21ZM7333.68 2624L7087.61 2638.21V2205.15V1772.09H7333.68L7205 2205.15L7333.68 2624ZM8269.25 2240.5C8269.25 2490.62 8092.49 2656.33 7843.7 2656.33C7784.57 2657 7725.88 2646.01 7670.99 2624C7616.11 2601.98 7566.09 2569.38 7523.81 2528.03C7481.52 2486.69 7447.79 2437.43 7424.55 2383.05C7401.3 2328.67 7388.99 2270.25 7388.32 2211.12C7387.66 2151.98 7398.64 2093.3 7420.66 2038.41C7442.67 1983.52 7475.28 1933.51 7516.62 1891.22C7557.96 1848.93 7607.23 1815.21 7661.6 1791.96C7715.98 1768.71 7774.4 1756.41 7833.54 1755.74C7909.07 1753.48 7983.9 1770.75 8050.79 1805.9C8117.68 1841.05 8174.36 1892.88 8215.34 1956.36L8069.51 2040.76C8044.44 2002.27 8009.79 1970.95 7968.96 1949.88C7928.14 1928.81 7882.54 1918.71 7836.63 1920.57C7798.96 1919.4 7761.46 1925.96 7726.43 1939.86C7691.39 1953.75 7659.58 1974.68 7632.96 2001.35C7606.33 2028.02 7585.45 2059.86 7571.61 2094.91C7557.77 2129.97 7551.26 2167.48 7552.49 2205.15C7552.49 2366 7658.7 2487.65 7839 2487.65C7838.4 2410.65 7838.4 2486.18 7838.4 2382.15V2322.7V2172.89H8272.79L8269.25 2240.5ZM9052.3 2638.21H8882.61L8810 2322.7H8646.5L8561.35 2638.21H8392.1V1772.09H8563.12L8646.5 2066.39H8765.5L8884.38 1772.09H9054.95L9052.3 2638.21ZM9788.5 1935.59H9554.3L9788.5 2655.45H9151.28L9368 1954.98L9151.28 1935.59V1772.09H9788.5V1935.59Z" fill="black"/>
</svg>
